# xmcd CD database file
#
# Track frame offsets:
#	150
#	31579
#	64624
#	93193
#	118636
#	140332
#
# Disc length: 2396 seconds
#
# Revision: 0
# Processed by: cddbd v1.5.2PL0 Copyright (c) Steve Scherf et al.
# Submitted via: CDex 1.77
#
DISCID=41095a06
DTITLE=Jim Doherty - Jim Doherty's Spondance
DYEAR=1988
DGENRE=Jazz
TTITLE0=Nordic Maiden
TTITLE1=When Two People Meet
TTITLE2=Bertha D. Blooze
TTITLE3=El Sponzo
TTITLE4=Sergeant Bones
TTITLE5=Maybe It's You
EXTD=YEAR: 1988
EXTT0=
EXTT1=
EXTT2=
EXTT3=
EXTT4=
EXTT5=
PLAYORDER=
